<svg width="69" height="33" viewBox="0 0 69 33" fill="none" xmlns="http://www.w3.org/2000/svg">
<path d="M11.916 31.796C11.724 31.796 11.592 31.784 11.52 31.76C10.992 31.592 10.428 31.4 9.828 31.184C9.252 30.992 8.628 30.764 7.956 30.5C5.604 29.54 3.804 27.704 2.556 24.992C1.452 22.568 0.9 19.724 0.9 16.46C0.9 12.5 1.656 9.008 3.168 5.984C4.8 2.744 6.816 1.076 9.216 0.979998C10.176 0.931999 11.544 1.412 13.32 2.42C15.144 3.428 16.344 4.436 16.92 5.444C17.496 6.404 17.892 8.576 18.108 11.96C18.156 12.728 18.06 13.46 17.82 14.156C17.532 15.044 17.16 15.452 16.704 15.38C16.296 15.332 15.816 15.236 15.264 15.092C14.736 14.948 14.16 14.78 13.536 14.588C12 14.084 11.172 13.664 11.052 13.328C11.004 13.184 10.98 13.076 10.98 13.004C10.98 12.788 11.076 12.524 11.268 12.212C11.484 11.876 11.592 11.6 11.592 11.384C11.64 10.904 11.676 10.436 11.7 9.98C11.748 9.5 11.772 9.044 11.772 8.612C11.772 7.364 11.628 6.5 11.34 6.02C9.924 7.052 8.832 8.816 8.064 11.312C7.44 13.448 7.128 15.812 7.128 18.404C7.128 20.444 7.308 22.268 7.668 23.876C8.028 25.484 8.46 26.444 8.964 26.756C9.204 26.9 9.864 26.42 10.944 25.316C12.024 24.236 12.732 23.336 13.068 22.616C13.116 22.568 13.224 22.184 13.392 21.464C13.536 21.032 13.728 20.768 13.968 20.672C14.352 20.528 15.396 20.876 17.1 21.716C18.78 22.556 19.608 23.132 19.584 23.444C19.512 24.044 19.284 24.524 18.9 24.884C18.228 26.348 17.16 27.848 15.696 29.384C14.16 30.992 12.9 31.796 11.916 31.796ZM35.8532 31.796C35.6612 31.796 35.5292 31.784 35.4572 31.76C34.9292 31.592 34.3652 31.4 33.7652 31.184C33.1892 30.992 32.5652 30.764 31.8932 30.5C29.5412 29.54 27.7412 27.704 26.4932 24.992C25.3892 22.568 24.8372 19.724 24.8372 16.46C24.8372 12.5 25.5932 9.008 27.1052 5.984C28.7372 2.744 30.7532 1.076 33.1532 0.979998C34.1132 0.931999 35.4812 1.412 37.2572 2.42C39.0812 3.428 40.2812 4.436 40.8572 5.444C41.4332 6.404 41.8292 8.576 42.0452 11.96C42.0932 12.728 41.9972 13.46 41.7572 14.156C41.4692 15.044 41.0972 15.452 40.6412 15.38C40.2332 15.332 39.7532 15.236 39.2012 15.092C38.6732 14.948 38.0972 14.78 37.4732 14.588C35.9372 14.084 35.1092 13.664 34.9892 13.328C34.9412 13.184 34.9172 13.076 34.9172 13.004C34.9172 12.788 35.0132 12.524 35.2052 12.212C35.4212 11.876 35.5292 11.6 35.5292 11.384C35.5772 10.904 35.6132 10.436 35.6372 9.98C35.6852 9.5 35.7092 9.044 35.7092 8.612C35.7092 7.364 35.5652 6.5 35.2772 6.02C33.8612 7.052 32.7692 8.816 32.0012 11.312C31.3772 13.448 31.0652 15.812 31.0652 18.404C31.0652 20.444 31.2452 22.268 31.6052 23.876C31.9652 25.484 32.3972 26.444 32.9012 26.756C33.1412 26.9 33.8012 26.42 34.8812 25.316C35.9612 24.236 36.6692 23.336 37.0052 22.616C37.0532 22.568 37.1612 22.184 37.3292 21.464C37.4732 21.032 37.6652 20.768 37.9052 20.672C38.2892 20.528 39.3332 20.876 41.0372 21.716C42.7172 22.556 43.5452 23.132 43.5212 23.444C43.4492 24.044 43.2212 24.524 42.8372 24.884C42.1652 26.348 41.0972 27.848 39.6332 29.384C38.0972 30.992 36.8372 31.796 35.8532 31.796ZM54.5704 32.12C53.5384 32.12 52.5064 31.916 51.4744 31.508C50.3464 31.028 49.7824 30.5 49.7824 29.924V3.572C49.7824 3.356 49.8184 3.116 49.8904 2.852C49.9864 2.564 50.1064 2.3 50.2504 2.06C50.3944 1.796 50.5504 1.568 50.7184 1.376C50.9104 1.184 51.1024 1.052 51.2944 0.979998C51.3424 0.955998 51.4504 0.943999 51.6184 0.943999C52.3624 0.943999 53.3464 1.208 54.5704 1.736C55.8904 2.288 56.5984 2.732 56.6944 3.068C56.7424 3.284 56.6224 4.16 56.3344 5.696C56.1664 6.608 56.0464 7.4 55.9744 8.072C55.9024 8.744 55.8664 9.32 55.8664 9.8C55.8664 9.968 55.8664 10.124 55.8664 10.268C55.8664 10.388 55.8784 10.508 55.9024 10.628L62.0944 1.124C62.4784 0.571998 62.9344 0.307998 63.4624 0.331998C64.0864 0.379999 64.9744 0.763999 66.1264 1.484C67.4224 2.324 68.0944 3.14 68.1424 3.932C68.1424 4.124 67.1824 5.468 65.2624 7.964C62.8624 11.012 60.9664 13.724 59.5744 16.1L66.8464 24.452C67.0624 24.668 67.4464 24.824 67.9984 24.92C68.4784 25.016 68.7424 25.22 68.7904 25.532C68.8624 26.156 68.4544 27.284 67.5664 28.916C66.6304 30.644 65.8624 31.472 65.2624 31.4C64.5424 31.28 63.0184 29.852 60.6904 27.116C59.3944 25.556 58.3504 24.344 57.5584 23.48C56.7664 22.592 56.2144 22.052 55.9024 21.86V28.484C55.9024 28.628 55.9744 28.88 56.1184 29.24C56.2624 29.6 56.3464 29.864 56.3704 30.032C56.4904 31.016 56.2864 31.64 55.7584 31.904C55.4944 32.048 55.0984 32.12 54.5704 32.12Z" fill="#07A4FB"/>
</svg>
