<svg width="24" height="25" viewBox="0 0 24 25" fill="none" xmlns="http://www.w3.org/2000/svg">
<path fill-rule="evenodd" clip-rule="evenodd" d="M7.19999 2.90002C6.53725 2.90002 5.99999 3.43728 5.99999 4.10002V5.30002H4.79999C3.47451 5.30002 2.39999 6.37454 2.39999 7.70002V19.7C2.39999 21.0255 3.47451 22.1 4.79999 22.1H19.2C20.5255 22.1 21.6 21.0255 21.6 19.7V7.70002C21.6 6.37454 20.5255 5.30002 19.2 5.30002H18V4.10002C18 3.43728 17.4627 2.90002 16.8 2.90002C16.1373 2.90002 15.6 3.43728 15.6 4.10002V5.30002H8.39999V4.10002C8.39999 3.43728 7.86274 2.90002 7.19999 2.90002ZM7.19999 8.90002C6.53725 8.90002 5.99999 9.43728 5.99999 10.1C5.99999 10.7628 6.53725 11.3 7.19999 11.3H16.8C17.4627 11.3 18 10.7628 18 10.1C18 9.43728 17.4627 8.90002 16.8 8.90002H7.19999Z" fill="#525150"/>
</svg>
