<svg width="32" height="32" viewBox="0 0 32 32" fill="none" xmlns="http://www.w3.org/2000/svg">
<path d="M27.2 0H4.8C2.14903 0 0 2.14903 0 4.8V27.2C0 29.851 2.14903 32 4.8 32H27.2C29.851 32 32 29.851 32 27.2V4.8C32 2.14903 29.851 0 27.2 0Z" fill="#E0E0E0"/>
<path d="M12.4375 25.25C11.75 25.25 11.8125 25 11.625 24.375L9.625 17.8125L24.9375 8.8125" fill="#444444"/>
<path d="M12.4375 25.25C12.875 25.25 13.125 25 13.4375 24.75L16.25 22.0625L12.75 19.9375" fill="#363636"/>
<path d="M12.75 19.9375L21.1875 26.125C22.0625 26.6875 22.8125 26.375 23.0625 25.25L26.5 9.12503C26.8125 7.75003 25.9375 7.12503 25 7.56253L4.93753 15.3125C3.62503 15.8125 3.62503 16.625 4.68753 16.9375L9.87503 18.5625L21.75 11C22.3125 10.6875 22.8125 10.8125 22.4375 11.25" fill="#595959"/>
</svg>
