<svg width="40" height="40" viewBox="0 0 40 40" fill="none" xmlns="http://www.w3.org/2000/svg">
<path d="M26 12C26 15.3137 23.3137 18 20 18C16.6863 18 14 15.3137 14 12C14 8.68629 16.6863 6 20 6C23.3137 6 26 8.68629 26 12Z" fill="#393837"/>
<path d="M36 16C36 18.2091 34.2091 20 32 20C29.7909 20 28 18.2091 28 16C28 13.7909 29.7909 12 32 12C34.2091 12 36 13.7909 36 16Z" fill="#393837"/>
<path d="M28 30C28 25.5817 24.4183 22 20 22C15.5817 22 12 25.5817 12 30V36H28V30Z" fill="#393837"/>
<path d="M12 16C12 18.2091 10.2091 20 8 20C5.79086 20 4 18.2091 4 16C4 13.7909 5.79086 12 8 12C10.2091 12 12 13.7909 12 16Z" fill="#393837"/>
<path d="M32 36V30C32 27.8917 31.4563 25.9104 30.5015 24.1886C30.9805 24.0655 31.4826 24 32 24C35.3137 24 38 26.6863 38 30V36H32Z" fill="#393837"/>
<path d="M9.49853 24.1886C8.5437 25.9104 8 27.8917 8 30V36H2V30C2 26.6863 4.68629 24 8 24C8.51742 24 9.01954 24.0655 9.49853 24.1886Z" fill="#393837"/>
</svg>
