<svg width="20" height="24" viewBox="0 0 20 24" fill="none" xmlns="http://www.w3.org/2000/svg">
<path fill-rule="evenodd" clip-rule="evenodd" d="M16.2876 7.79995C16.2876 11.275 13.471 14.0925 9.9955 14.0925C6.51953 14.0925 3.70244 11.275 3.70244 7.79999V6.29259C3.70244 2.81756 6.51949 0 9.9955 0C13.471 0 16.2876 2.81756 16.2876 6.29254V7.79995ZM14.7648 14.5681C17.1308 15.5837 18.5841 17.3703 19.4715 18.9476C20.6485 21.0398 19.7257 24 17.6902 24H9.99554H2.30036C0.26481 24 -0.657971 21.0398 0.519013 18.9476C1.40584 17.3703 2.8592 15.5837 5.22517 14.5681C6.5784 15.5148 8.22231 16.0721 9.9955 16.0721C11.7677 16.0721 13.4116 15.5147 14.7648 14.5681Z" fill="white"/>
</svg>
