<svg width="24" height="24" viewBox="0 0 24 24" fill="none" xmlns="http://www.w3.org/2000/svg">
<path fill-rule="evenodd" clip-rule="evenodd" d="M21.6 12C21.6 17.3019 17.3019 21.6 12 21.6C6.69807 21.6 2.4 17.3019 2.4 12C2.4 6.69806 6.69807 2.39999 12 2.39999C17.3019 2.39999 21.6 6.69806 21.6 12ZM12 8.39999C11.5574 8.39999 11.1691 8.63905 10.9598 9.00087C10.628 9.57454 9.8939 9.77057 9.32022 9.43872C8.74655 9.10687 8.55052 8.3728 8.88237 7.79912C9.50301 6.72621 10.666 5.99999 12 5.99999C13.9882 5.99999 15.6 7.61177 15.6 9.59999C15.6 11.1675 14.5982 12.5009 13.2 12.9951V13.2C13.2 13.8627 12.6628 14.4 12 14.4C11.3373 14.4 10.8 13.8627 10.8 13.2V12C10.8 11.3373 11.3373 10.8 12 10.8C12.6628 10.8 13.2 10.2627 13.2 9.59999C13.2 8.93725 12.6628 8.39999 12 8.39999ZM12 18C12.6627 18 13.2 17.4627 13.2 16.8C13.2 16.1373 12.6627 15.6 12 15.6C11.3373 15.6 10.8 16.1373 10.8 16.8C10.8 17.4627 11.3373 18 12 18Z" fill="#07A4FB"/>
</svg>
