<svg width="32" height="32" viewBox="0 0 32 32" fill="none" xmlns="http://www.w3.org/2000/svg">
<g clip-path="url(#clip0_24_427)">
<rect width="32" height="32" fill="#FBFBFB"/>
<path d="M27.2 0H4.8C2.14903 0 0 2.14903 0 4.8V27.2C0 29.851 2.14903 32 4.8 32H27.2C29.851 32 32 29.851 32 27.2V4.8C32 2.14903 29.851 0 27.2 0Z" fill="#E0E0E0"/>
<path d="M17.125 22.6876C17.4375 22.6251 18 22.5001 18 21.7501C18 21.7501 17.9375 19.8751 18.8125 19.6251C19.6875 19.3751 20.8125 21.4376 22 22.2501C22.875 22.8126 23.5625 22.7501 23.5625 22.7501L26.75 22.6876C26.75 22.6876 28.375 22.5626 27.625 21.2501C27.5625 21.1251 27.0625 20.3126 25.1875 18.6251C23.25 16.7501 23.5625 17.0626 25.875 13.8751C27.3125 11.9376 27.9375 10.7501 27.75 10.3126C27.5 9.87505 26.5 9.93755 26.5 9.93755H22.9375C22.5625 9.93755 22.375 10.0001 22.1875 10.3126C22.1875 10.3126 21.625 11.8751 20.875 13.1251C19.3125 15.8126 18.6875 15.9376 18.375 15.7501C17.8125 15.4376 17.9375 14.2501 17.9375 13.4376C17.9375 10.6251 18.375 9.62505 17.125 9.37505C16.3125 9.25005 13.4375 9.12505 12.5625 9.56255C12.125 9.81255 11.875 10.2501 12.0625 10.3126C12.25 10.3126 12.8125 10.3751 13.125 10.7501C13.625 11.5626 13.6875 15.4376 13 15.8126C12.0625 16.5001 9.68753 11.9376 9.12503 10.4376C9.00003 10.0626 8.81253 10.0001 8.37503 9.87505H4.93753C4.56253 9.87505 4.00003 9.93755 4.25003 10.6876C5.93753 14.1876 9.43753 22.7501 15.75 22.6876H17.125Z" fill="#595959"/>
</g>
<defs>
<clipPath id="clip0_24_427">
<rect width="32" height="32" fill="white"/>
</clipPath>
</defs>
</svg>
