<svg width="24" height="24" viewBox="0 0 24 24" fill="none" xmlns="http://www.w3.org/2000/svg">
<path fill-rule="evenodd" clip-rule="evenodd" d="M11.9999 21.6C17.3018 21.6 21.5999 17.302 21.5999 12C21.5999 6.69809 17.3018 2.40002 11.9999 2.40002C6.69797 2.40002 2.3999 6.69809 2.3999 12C2.3999 17.302 6.69797 21.6 11.9999 21.6ZM12.9999 7.20002C12.9999 6.64774 12.5522 6.20002 11.9999 6.20002C11.4476 6.20002 10.9999 6.64774 10.9999 7.20002V12C10.9999 12.2652 11.1053 12.5196 11.2928 12.7071L14.6869 16.1012C15.0774 16.4918 15.7106 16.4918 16.1011 16.1012C16.4916 15.7107 16.4916 15.0776 16.1011 14.687L12.9999 11.5858V7.20002Z" fill="#393837"/>
</svg>
